<?xml version="1.0" standalone="no"?>
<!DOCTYPE svg PUBLIC "-//W3C//DTD SVG 20010904//EN"
 "http://www.w3.org/TR/2001/REC-SVG-20010904/DTD/svg10.dtd">
<svg version="1.0" xmlns="http://www.w3.org/2000/svg"
 width="1024.000000pt" height="1024.000000pt" viewBox="0 0 1024.000000 1024.000000"
 preserveAspectRatio="xMidYMid meet">
<metadata>
Created by potrace 1.11, written by Peter Selinger 2001-2013
</metadata>
<g transform="translate(0.000000,1024.000000) scale(0.100000,-0.100000)"
fill="#000000" stroke="none">
<path d="M2090 10229 c-566 -40 -1114 -308 -1500 -734 -298 -328 -481 -710
-562 -1170 l-23 -130 0 -3075 0 -3075 22 -130 c143 -826 676 -1478 1448 -1771
243 -92 465 -132 788 -141 l227 -6 0 306 0 307 2625 0 2625 0 0 -307 0 -306
228 6 c325 9 528 44 782 137 553 202 999 605 1258 1135 100 205 171 434 209
680 17 115 18 253 18 3165 0 2918 -1 3050 -19 3165 -118 765 -562 1378 -1246
1720 -300 151 -603 220 -1007 232 l-223 6 0 -311 0 -312 -2622 2 -2623 3 -3
308 -2 307 -148 -2 c-81 0 -194 -4 -252 -9z m4247 -3865 c725 -333 1321 -608
1326 -613 4 -4 -223 -113 -505 -243 l-513 -235 -5 -209 c-6 -240 -11 -258 -98
-312 -107 -67 -1282 -672 -1337 -689 -93 -28 -327 -26 -416 4 -76 26 -1297
661 -1349 702 -70 56 -74 73 -80 301 l-5 205 -265 122 c-467 215 -443 204
-435 185 16 -40 36 -173 51 -344 25 -271 26 -843 1 -993 -45 -270 -156 -490
-342 -675 l-105 -105 -359 359 -359 359 198 206 c110 113 224 237 255 276 91
114 166 276 262 565 55 166 73 257 73 365 0 46 5 96 10 111 8 21 8 29 -2 35
-9 6 2 15 32 28 25 11 628 288 1340 615 712 327 1297 593 1301 590 4 -2 601
-277 1326 -610z"/>
</g>
</svg>
