<svg version="1.1" viewBox="0.0 0.0 512.0 512.0" fill="none" stroke="none" stroke-linecap="square" stroke-miterlimit="10" xmlns:xlink="http://www.w3.org/1999/xlink" xmlns="http://www.w3.org/2000/svg"><clipPath id="p.0"><path d="m0 0l512.0 0l0 512.0l-512.0 0l0 -512.0z" clip-rule="nonzero"/></clipPath><g clip-path="url(#p.0)"><path fill="#000000" fill-opacity="0.0" d="m0 0l512.0 0l0 512.0l-512.0 0z" fill-rule="evenodd"/><defs><linearGradient id="p.1" gradientUnits="userSpaceOnUse" gradientTransform="matrix(22.627530147851374 0.0 0.0 22.627530147851374 0.0 0.0)" spreadMethod="pad" x1="1.8464765526853741" y1="-6.861885381296125E-5" x2="1.8463946541353626" y2="22.627461528849352"><stop offset="0.0" stop-color="#4d4d4d"/><stop offset="1.0" stop-color="#000000"/></linearGradient></defs><path fill="url(#p.1)" d="m103.46681 0l305.54932 0c16.35907 0 32.048157 6.4986243 43.615784 18.06625c11.567596 11.567625 18.066223 27.256691 18.066223 43.615784l0 450.31796c0 0.001953125 -0.0015869141 0.0036010742 -0.0035705566 0.0036010742l-428.9098 -0.0036010742l0 0c-0.0019760132 0 -0.0035743713 -0.0015869141 -0.0035743713 -0.0035705566l0.0035743713 -450.3144l0 0c0 -34.066048 27.615986 -61.682034 61.682034 -61.682034z" fill-rule="evenodd"/><path stroke="#000000" stroke-width="1.0" stroke-linejoin="round" stroke-linecap="butt" d="m103.46681 0l305.54932 0c16.35907 0 32.048157 6.4986243 43.615784 18.06625c11.567596 11.567625 18.066223 27.256691 18.066223 43.615784l0 450.31796c0 0.001953125 -0.0015869141 0.0036010742 -0.0035705566 0.0036010742l-428.9098 -0.0036010742l0 0c-0.0019760132 0 -0.0035743713 -0.0015869141 -0.0035743713 -0.0035705566l0.0035743713 -450.3144l0 0c0 -34.066048 27.615986 -61.682034 61.682034 -61.682034z" fill-rule="evenodd"/><defs><linearGradient id="p.2" gradientUnits="userSpaceOnUse" gradientTransform="matrix(22.457069210077066 0.0 0.0 22.457069210077066 0.0 0.0)" spreadMethod="pad" x1="2.0963505410807337" y1="0.3428442219681505" x2="2.096269048100202" y2="22.79991343189735"><stop offset="0.0" stop-color="#696969"/><stop offset="1.0" stop-color="#1d1d1d"/></linearGradient></defs><path fill="url(#p.2)" d="m96.24153 7.7007875l319.034 0c13.038086 0 25.542145 5.1793594 34.761475 14.398679c9.21933 9.21932 14.398682 21.723402 14.398682 34.76149l0 455.1548c0 0.0018920898 -0.0015563965 0.003479004 -0.003479004 0.003479004l-417.35086 -0.003479004l0 0c-0.0019187927 0 -0.0034751892 -0.0015258789 -0.0034751892 -0.003479004l0.0034751892 -455.1513l0 0c0 -27.15041 22.009754 -49.160168 49.160168 -49.160168z" fill-rule="evenodd"/><path stroke="#000000" stroke-width="1.0" stroke-linejoin="round" stroke-linecap="butt" d="m96.24153 7.7007875l319.034 0c13.038086 0 25.542145 5.1793594 34.761475 14.398679c9.21933 9.21932 14.398682 21.723402 14.398682 34.76149l0 455.1548c0 0.0018920898 -0.0015563965 0.003479004 -0.003479004 0.003479004l-417.35086 -0.003479004l0 0c-0.0019187927 0 -0.0034751892 -0.0015258789 -0.0034751892 -0.003479004l0.0034751892 -455.1513l0 0c0 -27.15041 22.009754 -49.160168 49.160168 -49.160168z" fill-rule="evenodd"/><defs><linearGradient id="p.3" gradientUnits="userSpaceOnUse" gradientTransform="matrix(20.172518371785593 0.0 0.0 20.172518371785593 0.0 0.0)" spreadMethod="pad" x1="3.337614211008483" y1="5.209327295551013" x2="3.3375410234210166" y2="25.38184566720384"><stop offset="0.0" stop-color="#fff6db"/><stop offset="1.0" stop-color="#fad25c"/></linearGradient></defs><path fill="url(#p.3)" d="m67.32809 105.08662l377.82675 0l0 406.92914l-377.82675 0z" fill-rule="evenodd"/><path stroke="#000000" stroke-width="1.0" stroke-linejoin="round" stroke-linecap="butt" d="m67.32809 105.08662l377.82675 0l0 406.92914l-377.82675 0z" fill-rule="evenodd"/><defs><linearGradient id="p.4" gradientUnits="userSpaceOnUse" gradientTransform="matrix(3.9285019098506275 0.0 0.0 3.9285019098506275 0.0 0.0)" spreadMethod="pad" x1="45.72144853738712" y1="12.758884771045619" x2="45.72143287855598" y2="16.68738668086504"><stop offset="0.0" stop-color="#bfbfbf"/><stop offset="1.0" stop-color="#737373"/></linearGradient></defs><path fill="url(#p.4)" d="m179.61679 57.839893l0 0c0 -4.2617226 3.4548187 -7.7165337 7.7165375 -7.7165337l0 0c2.0465546 0 4.0092926 0.8129883 5.456421 2.2601204c1.4471283 1.4471321 2.2601166 3.4098625 2.2601166 5.4564133l0 0c0 4.2617264 -3.4548035 7.7165337 -7.7165375 7.7165337l0 0c-4.2617188 0 -7.7165375 -3.4548073 -7.7165375 -7.7165337z" fill-rule="evenodd"/><path stroke="#000000" stroke-width="1.0" stroke-linejoin="round" stroke-linecap="butt" d="m179.61679 57.839893l0 0c0 -4.2617226 3.4548187 -7.7165337 7.7165375 -7.7165337l0 0c2.0465546 0 4.0092926 0.8129883 5.456421 2.2601204c1.4471283 1.4471321 2.2601166 3.4098625 2.2601166 5.4564133l0 0c0 4.2617264 -3.4548035 7.7165337 -7.7165375 7.7165337l0 0c-4.2617188 0 -7.7165375 -3.4548073 -7.7165375 -7.7165337z" fill-rule="evenodd"/><defs><linearGradient id="p.5" gradientUnits="userSpaceOnUse" gradientTransform="matrix(2.7779067869806626 0.0 0.0 2.7779067869806626 0.0 0.0)" spreadMethod="pad" x1="80.61735822500034" y1="19.43240027546273" x2="80.61735084345341" y2="22.210307062433586"><stop offset="0.0" stop-color="#bfbfbf"/><stop offset="1.0" stop-color="#737373"/></linearGradient></defs><path fill="url(#p.5)" d="m223.94751 55.267742l0 0c0 -0.71030045 0.57580566 -1.2861137 1.2861176 -1.2861137l61.04982 0c0.34109497 0 0.6682129 0.13549805 0.9094238 0.37669373c0.24118042 0.24119186 0.37667847 0.5683212 0.37667847 0.90942l0 5.144306c0 0.71030045 -0.57580566 1.2861137 -1.2861023 1.2861137l-61.04982 0c-0.7103119 0 -1.2861176 -0.5758133 -1.2861176 -1.2861137z" fill-rule="evenodd"/><path stroke="#000000" stroke-width="1.0" stroke-linejoin="round" stroke-linecap="butt" d="m223.94751 55.267742l0 0c0 -0.71030045 0.57580566 -1.2861137 1.2861176 -1.2861137l61.04982 0c0.34109497 0 0.6682129 0.13549805 0.9094238 0.37669373c0.24118042 0.24119186 0.37667847 0.5683212 0.37667847 0.90942l0 5.144306c0 0.71030045 -0.57580566 1.2861137 -1.2861023 1.2861137l-61.04982 0c-0.7103119 0 -1.2861176 -0.5758133 -1.2861176 -1.2861137z" fill-rule="evenodd"/><defs><linearGradient id="p.6" gradientUnits="userSpaceOnUse" gradientTransform="matrix(6.052269183585913 0.0 0.0 6.052269183585913 0.0 0.0)" spreadMethod="pad" x1="5.836667025035172" y1="18.632947265242468" x2="5.836645002861886" y2="24.685216448788314"><stop offset="0.0" stop-color="#bfbfbf"/><stop offset="1.0" stop-color="#737373"/></linearGradient></defs><path fill="url(#p.6)" d="m35.32508 114.37798l0 0c0 -0.8871536 0.71917725 -1.6063309 1.6063309 -1.6063309l6.4251328 0l0 0c0.4260254 0 0.83460236 0.16924286 1.135849 0.47048187c0.30124283 0.30124664 0.47048187 0.7098236 0.47048187 1.135849l0 33.41726c0 0.887146 -0.71917725 1.6063385 -1.6063309 1.6063385l-6.4251328 0c-0.8871536 0 -1.6063309 -0.7191925 -1.6063309 -1.6063385z" fill-rule="evenodd"/><path stroke="#000000" stroke-width="1.0" stroke-linejoin="round" stroke-linecap="butt" d="m35.32508 114.37798l0 0c0 -0.8871536 0.71917725 -1.6063309 1.6063309 -1.6063309l6.4251328 0l0 0c0.4260254 0 0.83460236 0.16924286 1.135849 0.47048187c0.30124283 0.30124664 0.47048187 0.7098236 0.47048187 1.135849l0 33.41726c0 0.887146 -0.71917725 1.6063385 -1.6063309 1.6063385l-6.4251328 0c-0.8871536 0 -1.6063309 -0.7191925 -1.6063309 -1.6063385z" fill-rule="evenodd"/><defs><linearGradient id="p.7" gradientUnits="userSpaceOnUse" gradientTransform="matrix(7.542011056386559 0.0 0.0 7.542011056386559 0.0 0.0)" spreadMethod="pad" x1="4.683824917980169" y1="25.559709617446106" x2="4.683797390090319" y2="33.10172067378243"><stop offset="0.0" stop-color="#bfbfbf"/><stop offset="1.0" stop-color="#737373"/></linearGradient></defs><path fill="url(#p.7)" d="m35.32546 194.37799l0 0c0 -0.88716125 0.71918106 -1.6063385 1.6063309 -1.6063385l6.4251328 0l0 0c0.4260254 0 0.83460236 0.16923523 1.135849 0.4704895c0.30124664 0.301239 0.47048187 0.7098236 0.47048187 1.135849l0 53.66922c0 0.887146 -0.71917725 1.6063385 -1.6063309 1.6063385l-6.4251328 0c-0.8871498 0 -1.6063309 -0.7191925 -1.6063309 -1.6063385z" fill-rule="evenodd"/><path stroke="#000000" stroke-width="1.0" stroke-linejoin="round" stroke-linecap="butt" d="m35.32546 194.37799l0 0c0 -0.88716125 0.71918106 -1.6063385 1.6063309 -1.6063385l6.4251328 0l0 0c0.4260254 0 0.83460236 0.16923523 1.135849 0.4704895c0.30124664 0.301239 0.47048187 0.7098236 0.47048187 1.135849l0 53.66922c0 0.887146 -0.71917725 1.6063385 -1.6063309 1.6063385l-6.4251328 0c-0.8871498 0 -1.6063309 -0.7191925 -1.6063309 -1.6063385z" fill-rule="evenodd"/><defs><linearGradient id="p.8" gradientUnits="userSpaceOnUse" gradientTransform="matrix(7.542011056386559 0.0 0.0 7.542011056386559 0.0 0.0)" spreadMethod="pad" x1="4.683824917980169" y1="36.166960044672166" x2="4.683797390090319" y2="43.70897110100849"><stop offset="0.0" stop-color="#bfbfbf"/><stop offset="1.0" stop-color="#737373"/></linearGradient></defs><path fill="url(#p.8)" d="m35.32546 274.378l0 0c0 -0.887146 0.71918106 -1.6063232 1.6063309 -1.6063232l6.4251328 0l0 0c0.4260254 0 0.83460236 0.16921997 1.135849 0.47045898c0.30124664 0.30126953 0.47048187 0.70983887 0.47048187 1.1358643l0 53.66922c0 0.887146 -0.71917725 1.6063232 -1.6063309 1.6063232l-6.4251328 0c-0.8871498 0 -1.6063309 -0.71917725 -1.6063309 -1.6063232z" fill-rule="evenodd"/><path stroke="#000000" stroke-width="1.0" stroke-linejoin="round" stroke-linecap="butt" d="m35.32546 274.378l0 0c0 -0.887146 0.71918106 -1.6063232 1.6063309 -1.6063232l6.4251328 0l0 0c0.4260254 0 0.83460236 0.16921997 1.135849 0.47045898c0.30124664 0.30126953 0.47048187 0.70983887 0.47048187 1.1358643l0 53.66922c0 0.887146 -0.71917725 1.6063232 -1.6063309 1.6063232l-6.4251328 0c-0.8871498 0 -1.6063309 -0.71917725 -1.6063309 -1.6063232z" fill-rule="evenodd"/><defs><linearGradient id="p.9" gradientUnits="userSpaceOnUse" gradientTransform="matrix(7.542011056385943 0.0 0.0 7.542011056385943 0.0 0.0)" spreadMethod="pad" x1="61.924636651903526" y1="25.559709617448195" x2="61.92460946386417" y2="33.10172067378514"><stop offset="0.0" stop-color="#bfbfbf"/><stop offset="1.0" stop-color="#737373"/></linearGradient></defs><path fill="url(#p.9)" d="m467.03632 194.37799l0 0c0 -0.88716125 0.71917725 -1.6063385 1.6063232 -1.6063385l6.4251404 0l0 0c0.4260254 0 0.8345947 0.16923523 1.1358337 0.4704895c0.301239 0.301239 0.4704895 0.7098236 0.4704895 1.135849l0 53.66922c0 0.887146 -0.71917725 1.6063385 -1.6063232 1.6063385l-6.4251404 0c-0.887146 0 -1.6063232 -0.7191925 -1.6063232 -1.6063385z" fill-rule="evenodd"/><path stroke="#000000" stroke-width="1.0" stroke-linejoin="round" stroke-linecap="butt" d="m467.03632 194.37799l0 0c0 -0.88716125 0.71917725 -1.6063385 1.6063232 -1.6063385l6.4251404 0l0 0c0.4260254 0 0.8345947 0.16923523 1.1358337 0.4704895c0.301239 0.301239 0.4704895 0.7098236 0.4704895 1.135849l0 53.66922c0 0.887146 -0.71917725 1.6063385 -1.6063232 1.6063385l-6.4251404 0c-0.887146 0 -1.6063232 -0.7191925 -1.6063232 -1.6063385z" fill-rule="evenodd"/></g></svg>